<svg width="616" height="787" viewBox="0 0 616 787" fill="none" xmlns="http://www.w3.org/2000/svg">
<mask id="mask0_78_2" style="mask-type:luminance" maskUnits="userSpaceOnUse" x="0" y="-1" width="616" height="788">
<path d="M2.66695e-05 -0.00012207L6.10352e-05 786.195L615.198 786.195L615.198 -0.000148961L2.66695e-05 -0.00012207Z" fill="white"/>
</mask>
<g mask="url(#mask0_78_2)">
<path d="M307.555 304.573L348.135 334.563L348.169 334.571L348.198 334.589L348.217 334.619L348.224 334.652L479.584 431.742L307.555 558.911L6.10352e-05 786.195L4.99216e-05 531.947L229.153 362.596C229.242 362.507 229.242 362.418 229.331 362.418L307.555 304.573Z" fill="#76ABAE"/>
<path d="M479.586 431.742L484.925 435.658L495.693 443.667C495.782 443.756 495.871 443.756 495.96 443.845L561.992 492.612L615.209 531.947L615.209 786.195L586.554 765.015C586.486 765.009 586.422 764.977 586.376 764.926L586.376 764.837L367.982 603.585L367.982 603.496L367.893 603.496L367.804 603.407L360.417 597.978L314.952 564.429L307.565 558.911L479.586 431.742Z" fill="#EEEEEE"/>
<g style="mix-blend-mode:multiply" opacity="0.15">
<path d="M479.586 431.738L484.925 435.654L495.693 443.663C495.782 443.752 495.871 443.752 495.96 443.841L561.992 492.609L556.03 495.723L360.417 597.975L314.952 564.425L307.565 558.907L479.586 431.738Z" fill="black"/>
</g>
<g style="mix-blend-mode:multiply" opacity="0.25">
<path d="M348.224 334.652L479.584 431.742L484.924 435.658L483.322 436.904C463.655 452.032 444.165 467.339 424.231 482.289C404.475 497.329 384.808 512.546 364.785 527.319L314.95 564.429L307.564 558.911L6.10352e-05 786.195C19.0442 770.177 38.5334 754.692 57.8445 739.119C77.1557 723.367 96.8228 708.15 116.312 692.754C155.557 662.23 195.01 632.002 234.671 602.072L294.473 557.576L354.542 513.436C374.565 498.664 394.855 484.336 414.967 469.742C432.855 456.838 450.92 444.201 468.896 431.475L443.623 411.63C432.944 403.265 422.176 394.811 411.586 386.179C390.406 369.003 369.137 352.273 348.224 334.652Z" fill="black"/>
</g>
<g style="mix-blend-mode:multiply" opacity="0.25">
<path d="M495.951 443.845L561.983 492.612L615.2 531.947L615.2 786.195C612.797 765.015 611.284 743.835 610.038 722.655C609.415 712.065 608.881 701.475 608.525 690.885C608.169 680.295 607.546 669.705 607.368 659.115C606.745 637.846 606.478 616.667 606.389 595.487C606.211 584.897 606.389 574.307 606.478 563.717C606.567 554.461 606.567 545.206 606.745 535.951L580.938 515.839C572.662 509.076 564.297 502.49 556.02 495.727C554.685 494.659 553.351 493.502 552.016 492.434C532.98 476.772 514.194 460.753 495.951 443.845Z" fill="black"/>
</g>
<g style="mix-blend-mode:screen" opacity="0.4">
<path d="M586.376 764.923L586.376 764.829L586.563 765.016C586.491 765.009 586.424 764.976 586.376 764.923Z" fill="white"/>
</g>
<g style="mix-blend-mode:screen" opacity="0.4">
<path d="M367.979 603.492C369.759 604.382 384.621 611.946 405 624.583C415.946 631.257 428.494 639.267 441.664 648.255C448.25 652.793 455.102 657.243 461.865 662.226C468.629 667.21 475.57 672.105 482.422 677.088C489.275 682.25 496.038 687.322 502.712 692.395C509.387 697.467 515.705 702.718 521.935 707.612C534.393 717.579 545.784 727.19 555.395 735.645C573.372 751.485 585.03 763.41 586.364 764.834L367.979 603.581C367.89 603.492 367.979 603.492 367.979 603.492Z" fill="white"/>
</g>
<g style="mix-blend-mode:screen" opacity="0.4">
<path d="M229.153 362.595C211.444 378.525 193.201 393.831 174.957 408.782C156.536 423.91 137.937 438.683 119.249 453.367C100.56 468.05 81.6053 482.467 62.5611 496.616C44.6738 510.143 26.5195 523.136 8.45425 536.396L7.65332 578.845L6.05147 625.743C4.62761 656.979 3.02577 688.215 6.10352e-05 719.451L5.2839e-05 531.946L229.153 362.595Z" fill="white"/>
</g>
<g style="mix-blend-mode:screen" opacity="0.3">
<path d="M307.554 337.765L26.6972 733.243L26.6972 545.382L246.595 382.884L246.773 382.706L307.554 337.765Z" fill="white"/>
</g>
<path d="M307.553 0.0035776L348.133 29.9937C348.157 29.9937 348.18 30.0026 348.196 30.0195C348.213 30.0364 348.223 30.0586 348.223 30.0827L479.583 127.172L307.562 254.341L0.00750732 481.625L0.00749621 227.377L229.161 58.026C229.25 57.937 229.25 57.848 229.339 57.848L307.553 0.0035776Z" fill="#EEEEEE"/>
<path d="M479.586 127.172L484.925 131.088L495.693 139.097C495.782 139.186 495.871 139.186 495.96 139.275L561.992 188.043L615.209 227.377L615.209 481.625L586.554 460.446C586.516 460.437 586.482 460.421 586.451 460.397C586.42 460.374 586.394 460.345 586.376 460.312L367.991 299.059L367.991 298.97L367.902 298.97L367.813 298.881L360.426 293.453L314.952 259.903L307.565 254.386L479.586 127.172Z" fill="#76ABAE"/>
<g style="mix-blend-mode:multiply" opacity="0.15">
<path d="M479.586 127.169L484.925 131.084L495.693 139.094C495.782 139.183 495.871 139.183 495.96 139.272L561.992 188.039L556.03 191.154L360.426 293.405L314.952 259.855L307.565 254.338L479.586 127.169Z" fill="black"/>
</g>
<g style="mix-blend-mode:multiply" opacity="0.25">
<path d="M348.223 30.0827L479.583 127.172L484.922 131.088L483.32 132.334C463.653 147.462 444.164 162.769 424.23 177.72C404.474 192.759 384.807 207.977 364.784 222.749L314.949 259.859L307.562 254.341L0.00750732 481.625C19.0517 465.607 38.5408 450.123 57.852 434.549C77.1632 418.798 96.8305 403.58 116.32 388.184C155.565 357.66 195.017 327.433 234.678 297.502L294.481 253.006L354.55 208.867C374.573 194.094 394.863 179.766 414.975 165.172C432.862 152.268 450.928 139.631 468.904 126.905L443.63 107.06C432.951 98.6951 422.183 90.2409 411.593 81.6088C390.404 64.4334 369.136 47.703 348.223 30.0827Z" fill="black"/>
</g>
<g style="mix-blend-mode:multiply" opacity="0.25">
<path d="M495.951 139.275L561.983 188.043L615.2 227.377L615.2 481.625C612.797 460.446 611.284 439.266 610.038 418.086C609.415 407.496 608.881 396.906 608.525 386.316C608.169 375.726 607.546 365.136 607.369 354.546C606.746 333.277 606.479 312.097 606.39 290.917C606.212 280.327 606.39 269.737 606.479 259.147C606.568 249.892 606.568 240.637 606.746 231.381L580.938 211.269C572.662 204.506 564.297 197.921 556.02 191.157C554.686 190.089 553.351 188.933 552.016 187.865C532.981 172.202 514.194 156.184 495.951 139.275Z" fill="black"/>
</g>
<g style="mix-blend-mode:screen" opacity="0.4">
<path d="M586.376 460.303L586.563 460.49C586.519 460.476 586.48 460.452 586.447 460.419C586.414 460.386 586.39 460.347 586.376 460.303Z" fill="white"/>
</g>
<g style="mix-blend-mode:screen" opacity="0.4">
<path d="M367.979 298.923C369.759 299.812 384.621 307.377 405 320.014C415.946 326.688 428.494 334.697 441.664 343.685C448.25 348.224 455.102 352.673 461.865 357.657C468.629 362.641 475.57 367.535 482.422 372.519C489.275 377.68 496.038 382.753 502.712 387.825C509.387 392.898 515.705 398.148 521.935 403.043C534.393 413.01 545.784 422.621 555.395 431.075C573.372 446.915 585.03 458.84 586.364 460.264L367.979 299.012C367.89 298.923 367.979 298.923 367.979 298.923Z" fill="white"/>
</g>
<g style="mix-blend-mode:screen" opacity="0.4">
<path d="M229.153 58.0255C211.444 73.955 193.201 89.2615 174.957 104.212C156.536 119.341 137.937 134.113 119.249 148.797C100.56 163.48 81.6053 177.897 62.5611 192.047C44.6738 205.573 26.5195 218.566 8.45425 231.826L7.65332 274.275L6.05147 321.173C4.62761 352.409 3.02577 383.645 6.10352e-05 414.881L5.2839e-05 227.376L229.153 58.0255Z" fill="white"/>
</g>
<g style="mix-blend-mode:screen" opacity="0.3">
<path d="M307.554 33.1517L26.6972 428.63L26.6972 240.769L246.595 78.2704L246.773 78.0923L307.554 33.1517Z" fill="white"/>
</g>
</g>
</svg>
